HIERARCHY
ROOT SpineBase
{
  OFFSET 0.000000 0.000000 0.000000
  CHANNELS 6 Xposition Yposition Zposition Zrotation Xrotation Yrotation
  JOINT SpineMid
  {
    OFFSET -0.000000 30.920603 0.000000
    CHANNELS 3 Zrotation Xrotation Yrotation
    JOINT SpineShoulder
    {
      OFFSET -0.111743 22.970369 -0.694571
      CHANNELS 3 Zrotation Xrotation Yrotation
      JOINT Neck
      {
        OFFSET -0.047708 7.608239 -0.548575
        CHANNELS 3 Zrotation Xrotation Yrotation
        JOINT Head
        {
          OFFSET -4.886853 13.366978 1.776085
          CHANNELS 3 Zrotation Xrotation Yrotation
          End Site
          {
            OFFSET 0 0 0
          }
        }
      }
      JOINT ShoulderLeft
      {
        OFFSET -14.850209 -3.357835 11.382449
        CHANNELS 3 Zrotation Xrotation Yrotation
        JOINT ElbowLeft
        {
          OFFSET -1.415521 -27.748265 0.922902
          CHANNELS 3 Zrotation Xrotation Yrotation
          JOINT WristLeft
          {
            OFFSET 2.871785 -23.580504 -11.813878
            CHANNELS 3 Zrotation Xrotation Yrotation
            JOINT HandLeft
            {
              OFFSET 1.500871 -4.150823 -1.999759
              CHANNELS 3 Zrotation Xrotation Yrotation
              JOINT HandTipLeft
              {
                OFFSET 0.836777 -4.237503 -1.593920
                CHANNELS 3 Zrotation Xrotation Yrotation
                End Site
                {
                  OFFSET 0 0 0
                }
              }
              JOINT ThumbLeft
              {
                OFFSET 3.272390 2.353934 -2.912261
                CHANNELS 3 Zrotation Xrotation Yrotation
                End Site
                {
                  OFFSET 0 0 0
                }
              }
            }
          }
        }
      }
      JOINT ShoulderRight
      {
        OFFSET 13.864567 -2.566725 -10.658624
        CHANNELS 3 Zrotation Xrotation Yrotation
        JOINT ElbowRight
        {
          OFFSET 7.988801 -24.798804 -4.049400
          CHANNELS 3 Zrotation Xrotation Yrotation
          JOINT WristRight
          {
            OFFSET -8.528536 -18.194481 -4.697192
            CHANNELS 3 Zrotation Xrotation Yrotation
            JOINT HandRight
            {
              OFFSET -3.486772 -5.765176 0.477509
              CHANNELS 3 Zrotation Xrotation Yrotation
              JOINT HandTipRight
              {
                OFFSET -3.466664 -6.658398 -1.626366
                CHANNELS 3 Zrotation Xrotation Yrotation
                End Site
                {
                  OFFSET 0 0 0
                }
              }
              JOINT ThumbRight
              {
                OFFSET -3.047295 0.846189 -2.649041
                CHANNELS 3 Zrotation Xrotation Yrotation
                End Site
                {
                  OFFSET 0 0 0
                }
              }
            }
          }
        }
      }
    }
  }
  JOINT HipLeft
  {
    OFFSET -5.846327 0.209441 0.573077
    CHANNELS 3 Zrotation Xrotation Yrotation
    JOINT KneeLeft
    {
      OFFSET 2.592153 -33.910693 2.863459
      CHANNELS 3 Zrotation Xrotation Yrotation
      JOINT AnkleLeft
      {
        OFFSET 5.299474 -32.449311 3.448348
        CHANNELS 3 Zrotation Xrotation Yrotation
        JOINT FootLeft
        {
          OFFSET -6.140779 -3.334734 -11.685360
          CHANNELS 3 Zrotation Xrotation Yrotation
          End Site
          {
            OFFSET 0 0 0
          }
        }
      }
    }
  }
  JOINT HipRight
  {
    OFFSET 5.700478 2.110658 -7.539323
    CHANNELS 3 Zrotation Xrotation Yrotation
    JOINT KneeRight
    {
      OFFSET 7.795846 -28.265019 -7.829497
      CHANNELS 3 Zrotation Xrotation Yrotation
      JOINT AnkleRight
      {
        OFFSET 9.390944 -39.921542 7.836823
        CHANNELS 3 Zrotation Xrotation Yrotation
        JOINT FootRight
        {
          OFFSET -6.378512 -3.272011 -11.634970
          CHANNELS 3 Zrotation Xrotation Yrotation
          End Site
          {
            OFFSET 0 0 0
          }
        }
      }
    }
  }
}
MOTION
Frames: 13
Frame Time: 0.033333
3.772372 81.085097 278.417651 -0.000000 0.000000 35.090601 -0.000000 0.000000 -35.090601 -0.000000 0.000000 0.000000 -0.000000 0.000000 0.000000 0.000000 0.000000 0.000000 -0.000000 0.000000 0.000000 -0.000000 0.000000 0.000000 -0.000000 0.000000 0.000000 -0.000000 0.000000 0.000000 0.000000 0.000000 0.000000 0.000000 0.000000 0.000000 -0.000000 0.000000 0.000000 -0.000000 0.000000 0.000000 -0.000000 0.000000 0.000000 -0.000000 0.000000 0.000000 0.000000 0.000000 0.000000 0.000000 0.000000 0.000000 -0.000000 0.000000 -35.090601 -0.000000 0.000000 0.000000 -0.000000 0.000000 0.000000 0.000000 0.000000 0.000000 -0.000000 0.000000 -35.090601 -0.000000 0.000000 0.000000 -0.000000 0.000000 0.000000 0.000000 0.000000 0.000000
3.967773 81.104911 278.232163 -0.251545 -0.006766 34.448078 0.211261 -0.136709 -34.447840 -0.000000 0.000000 0.000000 -0.000000 0.000000 0.000000 0.000000 0.000000 0.000000 -0.000000 0.000000 0.000000 -0.000000 0.000000 0.000000 2.191199 3.143786 0.020682 -8.137608 -4.695098 1.396865 0.000000 0.000000 0.000000 0.000000 0.000000 0.000000 -0.000000 0.000000 0.000000 -0.000000 0.000000 0.000000 0.204562 1.429075 -0.851740 0.006296 -2.784347 1.520456 0.000000 0.000000 0.000000 0.000000 0.000000 0.000000 0.211261 -0.136709 -34.447840 -0.000000 0.000000 0.000000 -0.000000 0.000000 0.000000 0.000000 0.000000 0.000000 0.211261 -0.136709 -34.447840 -0.000000 0.000000 0.000000 -0.000000 0.000000 0.000000 0.000000 0.000000 0.000000
4.202673 81.125304 278.039235 -0.498113 -0.037701 33.883069 0.434542 -0.246398 -33.882298 -0.753876 -0.345179 -0.058782 0.753535 0.345922 0.054237 0.000000 0.000000 0.000000 0.753535 0.345922 0.054237 -0.332780 -1.045452 0.036542 4.126161 6.557093 -0.120134 -14.077163 -8.424004 1.702592 0.000000 0.000000 0.000000 0.000000 0.000000 0.000000 0.753535 0.345922 0.054237 -0.000000 0.000000 0.000000 0.433366 2.535867 -1.513787 0.038474 -4.963634 2.711195 0.000000 0.000000 0.000000 0.000000 0.000000 0.000000 0.434542 -0.246398 -33.882298 -0.000000 0.000000 0.000000 -0.000000 0.000000 0.000000 0.000000 0.000000 0.000000 -0.052440 -1.482687 -34.327642 -0.295012 1.295562 0.441331 -0.000000 0.000000 0.000000 0.000000 0.000000 0.000000
4.477071 81.146277 277.838868 -0.739961 -0.092710 33.397802 -0.392755 -0.101607 -33.432985 -0.066153 -0.116767 -0.049277 1.077443 0.511975 0.076105 0.000000 0.000000 0.000000 1.077443 0.511975 0.076105 -0.471364 -1.387991 0.061805 5.239907 8.460201 -0.204119 -18.071217 -11.147510 1.501028 0.000000 0.000000 0.000000 0.000000 0.000000 0.000000 0.078738 0.174850 0.137270 0.999487 0.334757 -0.058099 0.671607 3.290315 -1.965640 0.057536 -6.510016 3.549671 0.000000 0.000000 0.000000 0.000000 0.000000 0.000000 0.668808 -0.329907 -33.396475 -0.825343 -0.793395 -0.223098 0.922831 1.040889 -0.589863 0.000000 0.000000 0.000000 -0.070658 -2.097828 -34.032452 -0.376606 1.878905 0.626485 0.107492 0.213595 -0.794992 0.000000 0.000000 0.000000
4.790969 81.167828 277.631061 -0.977338 -0.171745 32.993965 -0.462665 -0.127700 -33.040294 -0.072180 -0.140492 -0.062402 1.366955 0.673676 0.094787 0.000000 0.000000 0.000000 1.366955 0.673676 0.094787 -0.590867 -1.607241 0.092697 5.695358 9.428906 -0.206646 -20.274645 -12.943238 1.156848 0.000000 0.000000 0.000000 0.000000 0.000000 0.000000 -0.002160 0.219183 0.183863 1.370514 0.450160 -0.083792 0.907204 3.672844 -2.192091 0.035044 -7.406906 4.017490 0.000000 0.000000 0.000000 0.000000 0.000000 0.000000 0.913250 -0.388161 -32.992336 -1.097294 -0.989253 -0.287835 1.225042 1.304564 -0.765414 0.000000 0.000000 0.000000 -0.087305 -2.626323 -33.795906 -1.440649 2.309168 0.604289 1.167750 0.368569 -0.802642 0.000000 0.000000 0.000000
5.144365 81.189959 277.415815 -1.210480 -0.274801 32.672713 -0.502934 -0.148174 -32.729875 -0.070335 -0.156798 -0.073825 0.563346 0.958039 0.315503 0.000000 0.000000 0.000000 1.622598 0.831214 0.110491 -0.690951 -1.701015 0.129799 5.494353 9.472725 -0.099682 -20.772881 -13.908312 0.855291 0.000000 0.000000 0.000000 0.000000 0.000000 0.000000 -0.136015 0.256769 0.231280 1.760821 0.567464 -0.112811 1.132121 3.674396 -2.184167 -0.044394 -7.647550 4.103726 0.000000 0.000000 0.000000 0.000000 0.000000 0.000000 0.358998 -0.346320 -32.766140 -0.645594 -0.780126 -0.251583 1.525372 1.527292 -0.929861 0.000000 0.000000 0.000000 -0.104338 -3.067094 -33.618476 -1.792357 2.673219 0.663281 1.560358 0.541112 -0.919434 0.000000 0.000000 0.000000
5.610601 81.218288 277.187491 -1.515175 -0.477273 32.423906 -0.503338 -0.170715 -32.495278 -0.051105 -0.171190 -0.085784 0.255225 0.805797 0.277594 0.000000 0.000000 0.000000 1.678610 0.214816 0.164455 -0.564352 -0.832578 0.151710 4.300437 7.564227 -0.035546 -21.316840 -12.007155 2.117243 0.000000 0.000000 0.000000 0.000000 0.000000 0.000000 -0.452563 0.296760 0.292654 1.216703 1.264175 -0.076501 2.993879 2.509916 -1.776376 -0.779370 -6.952632 3.577761 0.000000 0.000000 0.000000 0.000000 0.000000 0.000000 0.495832 -0.219361 -32.543460 -0.723601 -0.830084 -0.278531 1.895443 1.654419 -1.102142 0.000000 0.000000 0.000000 -0.067349 -3.497181 -33.527818 -2.264048 3.022601 0.698339 2.104478 0.782380 -0.992493 0.000000 0.000000 0.000000
6.086222 81.242599 276.955815 -1.769016 -0.662774 32.277177 -0.469353 -0.181258 -32.360396 -0.024315 -0.169710 -0.093737 -0.093242 0.595810 0.227615 0.000000 0.000000 0.000000 1.847120 0.347272 0.176769 -0.728950 -0.706957 0.257417 2.749039 5.367735 0.102119 -16.872574 -12.005079 1.422046 0.000000 0.000000 0.000000 0.000000 0.000000 0.000000 -0.773578 0.323136 0.351286 1.436512 1.529140 -0.090571 3.510422 1.102616 -0.963909 -0.599947 -5.110542 2.375339 0.000000 0.000000 0.000000 0.000000 0.000000 0.000000 0.578382 -0.022114 -32.421366 -0.742466 -0.936230 -0.306483 2.234116 1.780325 -1.245429 0.000000 0.000000 0.000000 -0.057530 -3.729365 -33.469707 -2.636550 3.202234 0.664306 2.624013 1.020238 -1.039385 0.000000 0.000000 0.000000
6.501801 81.259999 276.775389 -1.965259 -0.839426 32.366398 -0.419330 -0.172071 -32.459070 -0.002915 -0.159673 -0.099144 -0.536620 0.219014 0.128150 0.000000 0.000000 0.000000 1.867991 0.587761 0.176839 -0.575836 -0.556962 0.278669 0.614211 3.019672 0.459517 -9.927423 -10.620733 0.192723 0.000000 0.000000 0.000000 0.000000 0.000000 0.000000 -0.933001 0.359393 0.384522 1.471177 1.813919 -0.123304 4.110029 -0.364564 -0.093614 -0.637869 -3.780111 1.451529 0.000000 0.000000 0.000000 0.000000 0.000000 0.000000 0.649477 0.267000 -32.527633 -0.670674 -1.103931 -0.329488 2.471239 1.861658 -1.310498 0.000000 0.000000 0.000000 -0.001289 -3.816133 -33.605355 -2.996354 3.140523 0.573858 3.093123 1.314095 -0.992170 0.000000 0.000000 0.000000
6.884705 81.277686 276.514330 -2.073902 -0.907532 32.236568 -0.370225 -0.165806 -32.333415 0.015200 -0.147035 -0.100807 -0.912122 -0.168388 0.032920 0.000000 0.000000 0.000000 1.729371 0.606087 0.177064 -0.530320 -0.323018 0.387560 -0.302244 2.866058 0.933982 -8.278212 -10.461389 -0.490120 0.000000 0.000000 0.000000 0.000000 0.000000 0.000000 -1.064937 0.325075 0.401940 1.182326 1.933138 -0.031034 5.400135 -0.362404 -0.147636 -1.179166 -3.699965 1.284264 0.000000 0.000000 0.000000 0.000000 0.000000 0.000000 0.529088 0.399475 -32.422965 -0.577031 -1.239230 -0.354550 2.680067 2.056784 -1.420093 0.000000 0.000000 0.000000 -0.054332 -3.836947 -33.476256 -3.226598 2.962603 0.438085 3.492804 1.653024 -1.010370 0.000000 0.000000 0.000000
7.265856 81.290918 276.231181 -2.174092 -0.935483 32.143000 -0.336016 -0.151731 -32.243299 0.025285 -0.136545 -0.103311 -1.127166 -0.510202 -0.053894 0.000000 0.000000 0.000000 1.560149 0.531063 0.180166 -0.529050 -0.142903 0.528041 0.635240 3.186147 0.601166 -3.243034 -14.894847 -2.949703 0.000000 0.000000 0.000000 0.000000 0.000000 0.000000 -1.040188 0.327005 0.418827 1.675218 2.191343 -0.293130 3.829775 -1.476968 0.539207 -0.337377 -1.599348 0.226877 0.000000 0.000000 0.000000 0.000000 0.000000 0.000000 0.359191 0.517588 -32.355497 -0.473374 -1.483185 -0.399915 2.898938 2.362907 -1.504336 0.000000 0.000000 0.000000 -0.164292 -3.684281 -33.299404 -3.199031 2.657819 0.228888 3.765185 1.975816 -1.045421 0.000000 0.000000 0.000000
7.588309 81.287115 275.988990 -2.283674 -0.942425 32.020525 -0.331470 -0.145589 -32.125265 0.027672 -0.135550 -0.107851 -1.155372 -0.727553 -0.114943 0.000000 0.000000 0.000000 1.371633 0.419542 0.186219 -0.477662 0.103743 0.675398 1.699076 3.648911 0.261884 -0.406671 -16.955235 -3.947785 0.000000 0.000000 0.000000 0.000000 0.000000 0.000000 -0.887597 0.459930 0.464648 1.567256 2.093913 -0.328234 2.853333 -2.569906 1.079119 0.811941 -0.588435 -0.362151 0.000000 0.000000 0.000000 0.000000 0.000000 0.000000 0.212579 0.562504 -32.257747 -0.428979 -1.752362 -0.458462 3.124536 2.724746 -1.578500 0.000000 0.000000 0.000000 -0.344018 -3.538061 -33.082939 -2.980060 2.481595 0.050612 3.909211 2.194868 -1.120789 0.000000 0.000000 0.000000
7.883831 81.269488 275.773775 -2.350365 -0.951913 31.970322 -0.306481 -0.115501 -32.076817 0.032419 -0.116301 -0.109620 -0.962517 -0.808536 -0.145862 0.000000 0.000000 0.000000 1.148119 0.171973 0.192050 -0.369892 0.279714 0.762077 2.137473 4.702623 0.410827 0.642128 -16.354808 -4.120799 0.000000 0.000000 0.000000 0.000000 0.000000 0.000000 -0.744800 0.604417 0.518524 2.230467 2.411536 -0.819586 -2.293487 -3.525867 1.186452 4.583424 -1.115027 0.340683 0.000000 0.000000 0.000000 0.000000 0.000000 0.000000 -0.003565 0.605568 -32.236516 -0.292767 -2.053537 -0.517102 3.271912 3.144850 -1.620940 0.000000 0.000000 0.000000 -0.569587 -3.358608 -32.933435 -2.728577 2.386028 -0.106299 4.027211 2.317876 -1.187565 0.000000 0.000000 0.000000
